<svg xmlns="http://www.w3.org/2000/svg" xmlns:xlink="http://www.w3.org/1999/xlink" width="1em" height="1em" viewBox="0 0 22 22">
  <g id="蒙版组_198" transform="translate(-917 -192)">
    <g id="组_10092" transform="translate(12 253)">
      <path id="路径_39430" fill="none" stroke="currentColor" stroke-width="2px" stroke-linecap="round" stroke-linejoin="round" d="M8,21.757l0-4.3a.542.542,0,0,1,.541-.541H13.95c.5,0,.5-.442.5-1.494S11.8,13.483,11.8,9.785,14.54,5,16.821,5s4.766,1.087,4.766,4.785-2.636,4.286-2.636,5.636,0,1.494.422,1.494h5.383a.541.541,0,0,1,.541.541v4.3Z" transform="translate(899 -65)"/>
      <path id="路径_39431"  fill="none" stroke="currentColor" stroke-width="2px" stroke-linecap="round" stroke-linejoin="round" d="M8,42H25.3" transform="translate(899 -82)"/>
    </g>
  </g>
</svg>
