<svg xmlns="http://www.w3.org/2000/svg" xmlns:xlink="http://www.w3.org/1999/xlink" width="1em" height="1em" viewBox="0 0 22 22">
  <g id="蒙版组_199" transform="translate(-1244 -192)">
    <g id="组_10093" transform="translate(0 -0.5)">
      <path id="路径_39432"  fill="none" stroke="currentColor" stroke-width="2px" stroke-linecap="round" stroke-linejoin="round" d="M8,4H26" transform="translate(1237 189.5)"/>
      <path id="路径_39433"  fill="none" stroke="currentColor" stroke-width="2px" stroke-linecap="round" stroke-linejoin="round" d="M8,44H26" transform="translate(1237 169.5)"/>
      <path id="路径_39434"  fill="none" stroke="currentColor" stroke-width="2px" stroke-linecap="round" stroke-linejoin="round" d="M12,4v6l5.063,5" transform="translate(1235.25 189.5)"/>
      <path id="路径_39435"  fill="none" stroke="currentColor" stroke-width="2px" stroke-linecap="round" stroke-linejoin="round" d="M32.063,32.5V25.25L27,21" transform="translate(1228.688 181)"/>
      <path id="路径_39436"  fill="none" stroke="currentColor" stroke-width="2px" stroke-linecap="round" stroke-linejoin="round" d="M12,33.75v-7l3.656-3.25" transform="translate(1235.25 179.75)"/>
      <path id="路径_39437"  fill="none" stroke="currentColor" stroke-width="2px" stroke-linecap="round" stroke-linejoin="round" d="M33.156,4v6L29.5,13.75" transform="translate(1227.594 189.5)"/>
      <path id="路径_39438"  fill="none" stroke="currentColor" stroke-width="2px" stroke-linecap="round" stroke-linejoin="round" d="M18,33h.563" transform="translate(1232.625 175)"/>
      <path id="路径_39439"  fill="none" stroke="currentColor" stroke-width="2px" stroke-linecap="round" stroke-linejoin="round" d="M29.147,32.646l.4.354" transform="translate(1227.749 175.177)"/>
      <path id="路径_39440"  fill="none" stroke="currentColor" stroke-width="2px" stroke-linecap="round" stroke-linejoin="round" d="M24,38h.563" transform="translate(1230 172.5)"/>
    </g>
  </g>
</svg>
