<svg xmlns="http://www.w3.org/2000/svg" xmlns:xlink="http://www.w3.org/1999/xlink" width="1em" height="1em" viewBox="0 0 22 22">
  <g id="蒙版组_200" transform="translate(-266 -192)">
    <g id="组_10094" transform="translate(-178 69)" >
      <path id="路径_39441" fill="none" stroke="currentColor" stroke-width="2px" stroke-linecap="round" stroke-linejoin="round" d="M5,5.5A1.5,1.5,0,0,1,6.5,4h12A1.5,1.5,0,0,1,20,5.5V24H6.5A1.5,1.5,0,0,1,5,22.5Z" transform="translate(440 120)"/>
      <path id="路径_39442" fill="none" stroke="currentColor" stroke-width="2px" stroke-linecap="round" stroke-linejoin="round" d="M35,23a1.146,1.146,0,0,1,1.25-1h2.5A1.146,1.146,0,0,1,40,23v8.5A1.719,1.719,0,0,1,38.125,33H35Z" transform="translate(425 111)"/>
      <path id="路径_39443" fill="none" stroke="currentColor" stroke-width="2px" stroke-linecap="round" stroke-linejoin="round" d="M11,12h4" transform="translate(437 116)"/>
      <path id="路径_39444" fill="none" stroke="currentColor" stroke-width="2px" stroke-linecap="round" stroke-linejoin="round" d="M11,19h6" transform="translate(437 112.5)"/>
    </g>
  </g>
</svg>
