<?xml version="1.0" standalone="no"?><!DOCTYPE svg PUBLIC "-//W3C//DTD SVG 1.1//EN" "http://www.w3.org/Graphics/SVG/1.1/DTD/svg11.dtd"><svg t="1620901415086" class="icon" viewBox="0 0 1177 1024" version="1.1" xmlns="http://www.w3.org/2000/svg" p-id="3338" xmlns:xlink="http://www.w3.org/1999/xlink" width="229.8828125" height="200"><defs><style type="text/css"></style></defs><path d="M1090.56 897.6384a26.9824 26.9824 0 0 1-11.4176-2.4064l-458.6496-197.2224a28.7744 28.7744 0 1 1 22.784-52.736l421.4784 181.248 48.9984-707.1744-651.1616 507.0848a28.7232 28.7232 0 0 1-28.8256 3.7888L17.6128 455.424A28.7744 28.7744 0 0 1 18.9952 401.92L1139.1488 1.6896a28.7744 28.7744 0 0 1 38.4 28.9792l-1.2288 16.5376c1.9968 6.656 1.536 13.9264-1.3824 20.2752L1119.232 870.9632a28.8768 28.8768 0 0 1-13.6704 22.5792 29.4912 29.4912 0 0 1-15.0016 4.096zM108.032 431.2064l332.4928 139.6224L1053.696 93.2864l-945.5616 337.92z" p-id="3339"></path><path d="M491.52 1022.5664a28.672 28.672 0 0 1-28.8256-28.7232v-301.056a28.672 28.672 0 1 1 57.344 0v235.8784l220.7744-201.5232a28.672 28.672 0 0 1 40.6528 1.9968 28.9792 28.9792 0 0 1-1.9968 40.8064l-268.6976 245.1968a28.8768 28.8768 0 0 1-19.2512 7.424z" p-id="3340"></path></svg>
